<svg xmlns="http://www.w3.org/2000/svg" viewBox="0 0 24 24" fill="#10b981">
  <path d="M21.5 12.5c0-.8-.3-1.5-.8-2.1l-2.5-2.5c-.6-.6-1.3-.8-2.1-.8-.8 0-1.5.3-2.1.8l-1.4 1.4-3.5-3.5c-.6-.6-1.3-.8-2.1-.8-.8 0-1.5.3-2.1.8l-2.5 2.5c-.6.6-.8 1.3-.8 2.1 0 .8.3 1.5.8 2.1l2.5 2.5c.6.6 1.3.8 2.1.8.8 0 1.5-.3 2.1-.8l3.5-3.5 1.4 1.4c.6.6 1.3.8 2.1.8.8 0 1.5-.3 2.1-.8l2.5-2.5c.6-.6.8-1.3.8-2.1z"/>
  <path d="M12 2l-2 4h4l-2-4z"/>
  <path d="M12 22l-2-4h4l-2 4z"/>
  <path d="M2 12l4-2v4l-4-2z"/>
  <path d="M22 12l-4-2v4l4-2z"/>
</svg> 